<svg xmlns="http://www.w3.org/2000/svg" xmlns:xlink="http://www.w3.org/1999/xlink" viewBox="0 0 512 512" width="512" height="512" style="width: 100%; height: 100%; transform: translate3d(0,0,0); content-visibility: visible;" preserveAspectRatio="xMidYMid meet"><defs><clipPath id="__lottie_element_2"><rect width="512" height="512" x="0" y="0"></rect></clipPath><radialGradient id="__lottie_element_15" spreadMethod="pad" gradientUnits="userSpaceOnUse" cx="-9.5" cy="79" r="125.7179382586272" fx="-9.5" fy="79"><stop offset="0%" stop-color="rgb(111,61,69)"></stop><stop offset="50%" stop-color="rgb(111,61,69)"></stop><stop offset="100%" stop-color="rgb(111,61,69)"></stop></radialGradient><mask id="__lottie_element_17"><path fill="url(#__lottie_element_16)" d=" M52.606998443603516,-25.30900001525879 C65.84100341796875,-15.368000030517578 76.39299774169922,-1.8209999799728394 83.83300018310547,16.841999053955078 C84.36799621582031,18.184999465942383 92.875,7.5 93.1520004272461,4.860000133514404 C84.08100128173828,-11.779999732971191 73.31800079345703,-23.945999145507812 57.08599853515625,-33.72700119018555 C55.75,-31.125 53.125,-26.75 52.606998443603516,-25.30900001525879z"></path></mask><radialGradient id="__lottie_element_16" spreadMethod="pad" gradientUnits="userSpaceOnUse" cx="-9.5" cy="79" r="125.7179382586272" fx="-9.5" fy="79"><stop stop-color="rgb(255,255,255)" offset="92%" stop-opacity="1"></stop><stop stop-color="rgb(255,255,255)" offset="96%" stop-opacity="0.5600000023841858"></stop><stop stop-color="rgb(255,255,255)" offset="100%" stop-opacity="0.11999999731779099"></stop></radialGradient><linearGradient id="__lottie_element_18" spreadMethod="pad" gradientUnits="userSpaceOnUse" x1="86" y1="-16" x2="73.5" y2="2.5"><stop offset="0%" stop-color="rgb(208,179,141)"></stop><stop offset="50%" stop-color="rgb(208,179,141)"></stop><stop offset="100%" stop-color="rgb(208,179,141)"></stop></linearGradient><mask id="__lottie_element_20"><path fill="url(#__lottie_element_19)" d=" M52.606998443603516,-25.30900001525879 C65.84100341796875,-15.368000030517578 76.39299774169922,-1.8209999799728394 83.83300018310547,16.841999053955078 C84.36799621582031,18.184999465942383 92.875,7.5 93.1520004272461,4.860000133514404 C84.08100128173828,-11.779999732971191 73.31800079345703,-23.945999145507812 57.08599853515625,-33.72700119018555 C55.75,-31.125 53.125,-26.75 52.606998443603516,-25.30900001525879z"></path></mask><linearGradient id="__lottie_element_19" spreadMethod="pad" gradientUnits="userSpaceOnUse" x1="86" y1="-16" x2="73.5" y2="2.5"><stop stop-color="rgb(255,255,255)" offset="47%" stop-opacity="1"></stop><stop stop-color="rgb(255,255,255)" offset="74%" stop-opacity="0.5"></stop><stop stop-color="rgb(255,255,255)" offset="100%" stop-opacity="0"></stop></linearGradient><linearGradient id="__lottie_element_27" spreadMethod="pad" gradientUnits="userSpaceOnUse" x1="-55.5" y1="-113" x2="86" y2="84.5"><stop offset="0%" stop-color="rgb(129,164,204)"></stop><stop offset="24%" stop-color="rgb(129,164,204)"></stop><stop offset="48%" stop-color="rgb(129,164,204)"></stop><stop offset="74%" stop-color="rgb(126,146,166)"></stop><stop offset="100%" stop-color="rgb(124,127,128)"></stop></linearGradient><radialGradient id="__lottie_element_28" spreadMethod="pad" gradientUnits="userSpaceOnUse" cx="-44" cy="117" r="44.52527372178637" fx="-44" fy="117"><stop offset="0%" stop-color="rgb(208,179,141)" stop-opacity="1"></stop><stop offset="50%" stop-color="rgb(208,179,141)" stop-opacity="0.5"></stop><stop offset="100%" stop-color="rgb(208,179,141)" stop-opacity="0"></stop></radialGradient><radialGradient id="__lottie_element_29" spreadMethod="pad" gradientUnits="userSpaceOnUse" cx="55" cy="-124" r="77.10058365537839" fx="55" fy="-124"><stop offset="0%" stop-color="rgb(208,179,141)" stop-opacity="1"></stop><stop offset="50%" stop-color="rgb(208,179,141)" stop-opacity="0.5"></stop><stop offset="100%" stop-color="rgb(208,179,141)" stop-opacity="0"></stop></radialGradient><linearGradient id="__lottie_element_30" spreadMethod="pad" gradientUnits="userSpaceOnUse" x1="-66" y1="-107" x2="-32" y2="-181"><stop offset="0%" stop-color="rgb(255,255,255)" stop-opacity="1"></stop><stop offset="50%" stop-color="rgb(255,255,255)" stop-opacity="0.6000000238418579"></stop><stop offset="100%" stop-color="rgb(255,255,255)" stop-opacity="0.20000000298023224"></stop></linearGradient><radialGradient id="__lottie_element_31" spreadMethod="pad" gradientUnits="userSpaceOnUse" cx="53" cy="-7" r="138.69751259485514" fx="53" fy="-7"><stop offset="68%" stop-color="rgb(70,81,87)" stop-opacity="1"></stop><stop offset="74%" stop-color="rgb(70,81,87)" stop-opacity="0.5"></stop><stop offset="80%" stop-color="rgb(70,81,87)" stop-opacity="0"></stop></radialGradient><radialGradient id="__lottie_element_32" spreadMethod="pad" gradientUnits="userSpaceOnUse" cx="156" cy="38" r="134.31678971744373" fx="156" fy="38"><stop offset="73%" stop-color="rgb(255,255,255)"></stop><stop offset="87%" stop-color="rgb(156,158,160)"></stop><stop offset="100%" stop-color="rgb(56,61,65)"></stop></radialGradient><radialGradient id="__lottie_element_48" spreadMethod="pad" gradientUnits="userSpaceOnUse" cx="-9.5" cy="79" r="125.7179382586272" fx="-9.5" fy="79"><stop offset="0%" stop-color="rgb(111,61,69)"></stop><stop offset="50%" stop-color="rgb(111,61,69)"></stop><stop offset="100%" stop-color="rgb(111,61,69)"></stop></radialGradient><mask id="__lottie_element_50"><path fill="url(#__lottie_element_49)" d=" M-8,-48.5 C55.5,-37.5 95.5,-7.5 96.5,96 C97.27300262451172,176.0030059814453 45.5,233 9,233 C-41.09000015258789,233 -61,211 -95,188 C-84,209 -61,247 5,248 C82.01699829101562,249.16700744628906 114.50299835205078,174.05799865722656 115,99 C115.5,23.5 83,-52.5 -8,-48.5z"></path></mask><radialGradient id="__lottie_element_49" spreadMethod="pad" gradientUnits="userSpaceOnUse" cx="-9.5" cy="79" r="125.7179382586272" fx="-9.5" fy="79"><stop stop-color="rgb(255,255,255)" offset="92%" stop-opacity="1"></stop><stop stop-color="rgb(255,255,255)" offset="96%" stop-opacity="0.5600000023841858"></stop><stop stop-color="rgb(255,255,255)" offset="100%" stop-opacity="0.11999999731779099"></stop></radialGradient><linearGradient id="__lottie_element_51" spreadMethod="pad" gradientUnits="userSpaceOnUse" x1="86" y1="-16" x2="73.5" y2="2.5"><stop offset="0%" stop-color="rgb(208,179,141)"></stop><stop offset="50%" stop-color="rgb(208,179,141)"></stop><stop offset="100%" stop-color="rgb(208,179,141)"></stop></linearGradient><mask id="__lottie_element_53"><path fill="url(#__lottie_element_52)" d=" M-8,-48.5 C55.5,-37.5 95.5,-7.5 96.5,96 C97.27300262451172,176.0030059814453 45.5,233 9,233 C-41.09000015258789,233 -61,211 -95,188 C-84,209 -61,247 5,248 C82.01699829101562,249.16700744628906 114.50299835205078,174.05799865722656 115,99 C115.5,23.5 83,-52.5 -8,-48.5z"></path></mask><linearGradient id="__lottie_element_52" spreadMethod="pad" gradientUnits="userSpaceOnUse" x1="86" y1="-16" x2="73.5" y2="2.5"><stop stop-color="rgb(255,255,255)" offset="47%" stop-opacity="1"></stop><stop stop-color="rgb(255,255,255)" offset="74%" stop-opacity="0.5"></stop><stop stop-color="rgb(255,255,255)" offset="100%" stop-opacity="0"></stop></linearGradient><radialGradient id="__lottie_element_57" spreadMethod="pad" gradientUnits="userSpaceOnUse" cx="-43.145999908447266" cy="75.4749984741211" r="65.68377675505711" fx="-43.145999908447266" fy="75.4749984741211"><stop offset="31%" stop-color="rgb(208,179,141)"></stop><stop offset="41%" stop-color="rgb(172,186,198)"></stop><stop offset="51%" stop-color="rgb(135,193,255)"></stop><stop offset="75%" stop-color="rgb(135,193,255)"></stop><stop offset="100%" stop-color="rgb(135,193,255)"></stop></radialGradient><mask id="__lottie_element_59"><path fill="url(#__lottie_element_58)" d=" M-0.20200000703334808,147.96200561523438 C63.42100143432617,147.96200561523438 114.99700164794922,99.85199737548828 114.99700164794922,0.014999999664723873 C114.99700164794922,-99.8219985961914 63.42100143432617,-147.9320068359375 -0.20200000703334808,-147.9320068359375 C-63.82500076293945,-147.9320068359375 -115.4020004272461,-99.8219985961914 -115.4020004272461,0.014999999664723873 C-115.4020004272461,99.85199737548828 -63.82500076293945,147.96200561523438 -0.20200000703334808,147.96200561523438 C-0.20200000703334808,147.96200561523438 -0.20200000703334808,147.96200561523438 -0.20200000703334808,147.96200561523438z M-0.20200000703334808,108.61499786376953 C-59.74399948120117,108.61499786376953 -76.05500030517578,50.16400146484375 -76.05500030517578,0.014999999664723873 C-76.05500030517578,-50.13399887084961 -59.74399948120117,-108.58499908447266 -0.20200000703334808,-108.58499908447266 C59.34000015258789,-108.58499908447266 75.6510009765625,-50.13399887084961 75.6510009765625,0.014999999664723873 C75.6510009765625,50.16400146484375 59.34000015258789,108.61499786376953 -0.20200000703334808,108.61499786376953z"></path></mask><radialGradient id="__lottie_element_58" spreadMethod="pad" gradientUnits="userSpaceOnUse" cx="-43.145999908447266" cy="75.4749984741211" r="65.68377675505711" fx="-43.145999908447266" fy="75.4749984741211"><stop stop-color="rgb(255,255,255)" offset="52%" stop-opacity="1"></stop><stop stop-color="rgb(255,255,255)" offset="76%" stop-opacity="0.5"></stop><stop stop-color="rgb(255,255,255)" offset="100%" stop-opacity="0"></stop></radialGradient><linearGradient id="__lottie_element_60" spreadMethod="pad" gradientUnits="userSpaceOnUse" x1="-98.70700073242188" y1="53.707000732421875" x2="-60.207000732421875" y2="56.707000732421875"><stop offset="0%" stop-color="rgb(111,61,69)"></stop><stop offset="50%" stop-color="rgb(111,61,69)"></stop><stop offset="100%" stop-color="rgb(111,61,69)"></stop></linearGradient><mask id="__lottie_element_62"><path fill="url(#__lottie_element_61)" d=" M-0.20200000703334808,147.96200561523438 C63.42100143432617,147.96200561523438 114.99700164794922,99.85199737548828 114.99700164794922,0.014999999664723873 C114.99700164794922,-99.8219985961914 63.42100143432617,-147.9320068359375 -0.20200000703334808,-147.9320068359375 C-63.82500076293945,-147.9320068359375 -115.4020004272461,-99.8219985961914 -115.4020004272461,0.014999999664723873 C-115.4020004272461,99.85199737548828 -63.82500076293945,147.96200561523438 -0.20200000703334808,147.96200561523438 C-0.20200000703334808,147.96200561523438 -0.20200000703334808,147.96200561523438 -0.20200000703334808,147.96200561523438z M-0.20200000703334808,108.61499786376953 C-59.74399948120117,108.61499786376953 -76.05500030517578,50.16400146484375 -76.05500030517578,0.014999999664723873 C-76.05500030517578,-50.13399887084961 -59.74399948120117,-108.58499908447266 -0.20200000703334808,-108.58499908447266 C59.34000015258789,-108.58499908447266 75.6510009765625,-50.13399887084961 75.6510009765625,0.014999999664723873 C75.6510009765625,50.16400146484375 59.34000015258789,108.61499786376953 -0.20200000703334808,108.61499786376953z"></path></mask><linearGradient id="__lottie_element_61" spreadMethod="pad" gradientUnits="userSpaceOnUse" x1="-98.70700073242188" y1="53.707000732421875" x2="-60.207000732421875" y2="56.707000732421875"><stop stop-color="rgb(255,255,255)" offset="0%" stop-opacity="0"></stop><stop stop-color="rgb(255,255,255)" offset="8%" stop-opacity="0.5"></stop><stop stop-color="rgb(255,255,255)" offset="16%" stop-opacity="1"></stop><stop stop-color="rgb(255,255,255)" offset="40%" stop-opacity="1"></stop><stop stop-color="rgb(255,255,255)" offset="63%" stop-opacity="1"></stop><stop stop-color="rgb(255,255,255)" offset="82%" stop-opacity="0.5"></stop><stop stop-color="rgb(255,255,255)" offset="100%" stop-opacity="0"></stop></linearGradient></defs><g clip-path="url(#__lottie_element_2)"><g style="display: block;" transform="matrix(0.7071067690849304,0.7071067690849304,-0.7071067690849304,0.7071067690849304,185.99600219726562,326.0039978027344)" opacity="1"><g opacity="1" transform="matrix(1,0,0,1,0,0)"><path fill="rgb(129,164,204)" fill-opacity="1" d=" M-0.20200000703334808,147.96200561523438 C63.42100143432617,147.96200561523438 114.99700164794922,99.85199737548828 114.99700164794922,0.014999999664723873 C114.99700164794922,-99.8219985961914 63.42100143432617,-147.9320068359375 -0.20200000703334808,-147.9320068359375 C-63.82500076293945,-147.9320068359375 -115.4020004272461,-99.8219985961914 -115.4020004272461,0.014999999664723873 C-115.4020004272461,99.85199737548828 -63.82500076293945,147.96200561523438 -0.20200000703334808,147.96200561523438 C-0.20200000703334808,147.96200561523438 -0.20200000703334808,147.96200561523438 -0.20200000703334808,147.96200561523438z M-0.20200000703334808,108.61499786376953 C-59.74399948120117,108.61499786376953 -76.05500030517578,50.16400146484375 -76.05500030517578,0.014999999664723873 C-76.05500030517578,-50.13399887084961 -59.74399948120117,-108.58499908447266 -0.20200000703334808,-108.58499908447266 C59.34000015258789,-108.58499908447266 75.6510009765625,-50.13399887084961 75.6510009765625,0.014999999664723873 C75.6510009765625,50.16400146484375 59.34000015258789,108.61499786376953 -0.20200000703334808,108.61499786376953z"></path><path fill="url(#__lottie_element_57)" mask="url(#__lottie_element_59)" fill-opacity="1" d="M0 0 M-0.20200000703334808,147.96200561523438 C63.42100143432617,147.96200561523438 114.99700164794922,99.85199737548828 114.99700164794922,0.014999999664723873 C114.99700164794922,-99.8219985961914 63.42100143432617,-147.9320068359375 -0.20200000703334808,-147.9320068359375 C-63.82500076293945,-147.9320068359375 -115.4020004272461,-99.8219985961914 -115.4020004272461,0.014999999664723873 C-115.4020004272461,99.85199737548828 -63.82500076293945,147.96200561523438 -0.20200000703334808,147.96200561523438 C-0.20200000703334808,147.96200561523438 -0.20200000703334808,147.96200561523438 -0.20200000703334808,147.96200561523438z M-0.20200000703334808,108.61499786376953 C-59.74399948120117,108.61499786376953 -76.05500030517578,50.16400146484375 -76.05500030517578,0.014999999664723873 C-76.05500030517578,-50.13399887084961 -59.74399948120117,-108.58499908447266 -0.20200000703334808,-108.58499908447266 C59.34000015258789,-108.58499908447266 75.6510009765625,-50.13399887084961 75.6510009765625,0.014999999664723873 C75.6510009765625,50.16400146484375 59.34000015258789,108.61499786376953 -0.20200000703334808,108.61499786376953z"></path><path fill="url(#__lottie_element_60)" mask="url(#__lottie_element_62)" fill-opacity="1" d="M0 0 M-0.20200000703334808,147.96200561523438 C63.42100143432617,147.96200561523438 114.99700164794922,99.85199737548828 114.99700164794922,0.014999999664723873 C114.99700164794922,-99.8219985961914 63.42100143432617,-147.9320068359375 -0.20200000703334808,-147.9320068359375 C-63.82500076293945,-147.9320068359375 -115.4020004272461,-99.8219985961914 -115.4020004272461,0.014999999664723873 C-115.4020004272461,99.85199737548828 -63.82500076293945,147.96200561523438 -0.20200000703334808,147.96200561523438 C-0.20200000703334808,147.96200561523438 -0.20200000703334808,147.96200561523438 -0.20200000703334808,147.96200561523438z M-0.20200000703334808,108.61499786376953 C-59.74399948120117,108.61499786376953 -76.05500030517578,50.16400146484375 -76.05500030517578,0.014999999664723873 C-76.05500030517578,-50.13399887084961 -59.74399948120117,-108.58499908447266 -0.20200000703334808,-108.58499908447266 C59.34000015258789,-108.58499908447266 75.6510009765625,-50.13399887084961 75.6510009765625,0.014999999664723873 C75.6510009765625,50.16400146484375 59.34000015258789,108.61499786376953 -0.20200000703334808,108.61499786376953z"></path></g></g><g style="display: block;" transform="matrix(0.7071067690849304,0.7071067690849304,-0.7071067690849304,0.7071067690849304,256,256)" opacity="1"><g opacity="1" transform="matrix(1,0,0,1,0,0)"><path fill="rgb(56,61,65)" fill-opacity="1" d=" M-8,-48.5 C55.5,-37.5 95.5,-7.5 96.5,96 C97.27300262451172,176.0030059814453 45.5,233 9,233 C-41.09000015258789,233 -61,211 -95,188 C-84,209 -61,247 5,248 C82.01699829101562,249.16700744628906 114.50299835205078,174.05799865722656 115,99 C115.5,23.5 83,-52.5 -8,-48.5z"></path><path fill="url(#__lottie_element_48)" mask="url(#__lottie_element_50)" fill-opacity="1" d="M0 0 M-8,-48.5 C55.5,-37.5 95.5,-7.5 96.5,96 C97.27300262451172,176.0030059814453 45.5,233 9,233 C-41.09000015258789,233 -61,211 -95,188 C-84,209 -61,247 5,248 C82.01699829101562,249.16700744628906 114.50299835205078,174.05799865722656 115,99 C115.5,23.5 83,-52.5 -8,-48.5z"></path><path fill="url(#__lottie_element_51)" mask="url(#__lottie_element_53)" fill-opacity="1" d="M0 0 M-8,-48.5 C55.5,-37.5 95.5,-7.5 96.5,96 C97.27300262451172,176.0030059814453 45.5,233 9,233 C-41.09000015258789,233 -61,211 -95,188 C-84,209 -61,247 5,248 C82.01699829101562,249.16700744628906 114.50299835205078,174.05799865722656 115,99 C115.5,23.5 83,-52.5 -8,-48.5z"></path></g></g><g style="display: block;" transform="matrix(0.7071067690849304,0.7071067690849304,-0.7071067690849304,0.7071067690849304,185.99600219726562,326.0039978027344)" opacity="1"><g opacity="1" transform="matrix(1,0,0,1,0,0)"><path fill="rgb(255,255,255)" fill-opacity="1" d=" M-6.75,139 C36.76100158691406,139 97,94.125 97,1 C97,-92.125 51.9900016784668,-137 -6,-137 C-63.9900016784668,-137 -107,-92.125 -107,1 C-107,104.5 -62,139 -6.75,139z M-6.675000190734863,121 C-60.5,121 -93,66 -93,1 C-93,-54.41299819946289 -71.2969970703125,-119 -6.675000190734863,-119 C57.946998596191406,-119 83.1510009765625,-64.5 83.1510009765625,1 C83.1510009765625,56.41299819946289 61,121 -6.675000190734863,121z"></path></g></g><g style="display: block;" transform="matrix(0.7071067690849304,0.7071067690849304,-0.7071067690849304,0.7071067690849304,256,256)" opacity="1"><g opacity="0.3" transform="matrix(1,0,0,1,0,0)"><path fill="rgb(56,61,65)" fill-opacity="1" d=" M33.5,-43.25 C5,-57 -45.75,-46.75 -69.75,-25.25 C-68.75,-13.25 -53,6.75 -49,9.25 C-39.5,-0.75 -7.25,-20 39.5,-3 C-1,-32 -34.948001861572266,-10.939000129699707 -40.04800033569336,-23.79599952697754 C-43.5,-32.5 -22,-47.75 33.5,-43.25z"></path></g></g><g style="display: block;" transform="matrix(0.7071067690849304,0.7071067690849304,-0.7071067690849304,0.7071067690849304,185.84300231933594,325.8710021972656)" opacity="1"><g opacity="1" transform="matrix(1,0,0,1,0,0)"><path stroke-linecap="round" stroke-linejoin="miter" fill-opacity="0" stroke-miterlimit="22.93" stroke="rgb(54,51,46)" stroke-opacity="1" stroke-width="7.5" d=" M0,108.5999984741211 C59.54199981689453,108.5999984741211 75.85299682617188,50.14899826049805 75.85299682617188,0 C75.85299682617188,-50.14899826049805 59.54199981689453,-108.5999984741211 0,-108.5999984741211 C-59.54199981689453,-108.5999984741211 -75.85299682617188,-50.14899826049805 -75.85299682617188,0 C-75.85299682617188,50.14899826049805 -59.54199981689453,108.5999984741211 0,108.5999984741211z"></path></g><g opacity="1" transform="matrix(1,0,0,1,0,0)"><path stroke-linecap="round" stroke-linejoin="miter" fill-opacity="0" stroke-miterlimit="22.93" stroke="rgb(108,109,106)" stroke-opacity="1" stroke-width="8" d=" M-44.61800003051758,-92.95800018310547 C-68.27999877929688,-72.19599914550781 -75.85299682617188,-34.17100143432617 -75.85299682617188,0 C-75.85299682617188,39.5099983215332 -65.72899627685547,84.1719970703125 -32.316001892089844,101.34500122070312"></path></g><g opacity="1" transform="matrix(1,0,0,1,0,0)"><path stroke-linecap="round" stroke-linejoin="miter" fill-opacity="0" stroke-miterlimit="22.93" stroke="rgb(60,112,162)" stroke-opacity="1" stroke-width="8" d=" M-43.16299819946289,94.19599914550781 C-32.284000396728516,103.16799926757812 -18.150999069213867,108.5999984741211 0,108.5999984741211 C0,108.5999984741211 0,108.5999984741211 0,108.5999984741211 C59.54199981689453,108.5999984741211 75.85299682617188,50.14899826049805 75.85299682617188,0 C75.85299682617188,-19.875999450683594 73.29100036621094,-41.05699920654297 66.48999786376953,-59.3849983215332"></path></g><g opacity="1" transform="matrix(1,0,0,1,0,0)"><path stroke-linecap="round" stroke-linejoin="miter" fill-opacity="0" stroke-miterlimit="22.93" stroke="rgb(169,149,123)" stroke-opacity="1" stroke-width="8" d=" M-60.95500183105469,71.81199645996094 C-56.17300033569336,80.8219985961914 -50.05099868774414,88.7249984741211 -42.327999114990234,94.87200164794922"></path></g></g><g style="display: block;" transform="matrix(0.7071067690849304,0.7071067690849304,-0.7071067690849304,0.7071067690849304,185.84300231933594,325.8710021972656)" opacity="1"><g opacity="1" transform="matrix(1,0,0,1,0,0)"><path stroke-linecap="round" stroke-linejoin="miter" fill-opacity="0" stroke-miterlimit="22.93" stroke="rgb(108,109,106)" stroke-opacity="1" stroke-width="8" d=" M0,147.94700622558594 C63.62300109863281,147.94700622558594 115.1989974975586,99.83699798583984 115.1989974975586,0 C115.1989974975586,-99.83699798583984 63.62300109863281,-147.94700622558594 0,-147.94700622558594 C-63.62300109863281,-147.94700622558594 -115.1989974975586,-99.83699798583984 -115.1989974975586,0 C-115.1989974975586,99.83699798583984 -63.62300109863281,147.94700622558594 0,147.94700622558594z"></path></g><g opacity="1" transform="matrix(1,0,0,1,0,0)"><path stroke-linecap="round" stroke-linejoin="miter" fill-opacity="0" stroke-miterlimit="22.93" stroke="rgb(54,51,46)" stroke-opacity="1" stroke-width="8" d=" M-4.2210001945495605,147.87600708007812 C-2.819999933242798,147.92300415039062 -1.4129999876022339,147.94700622558594 0,147.94700622558594 C0,147.94700622558594 0,147.94700622558594 0,147.94700622558594 C48.4739990234375,147.94700622558594 89.95500183105469,120.0199966430664 106.95999908447266,62.566001892089844"></path></g><g opacity="1" transform="matrix(1,0,0,1,0,0)"><path stroke-linecap="round" stroke-linejoin="miter" fill-opacity="0" stroke-miterlimit="22.93" stroke="rgb(60,112,162)" stroke-opacity="1" stroke-width="8" d=" M28.424999237060547,-144.5030059814453 C19.33300018310547,-146.80299377441406 9.8100004196167,-147.94700622558594 0,-147.94700622558594 C-63.62300109863281,-147.94700622558594 -115.1989974975586,-99.83699798583984 -115.1989974975586,0 C-115.1989974975586,28.518999099731445 -110.98999786376953,52.81700134277344 -103.49500274658203,72.97799682617188"></path></g><g opacity="1" transform="matrix(1,0,0,1,0,0)"><path stroke-linecap="round" stroke-linejoin="miter" fill-opacity="0" stroke-miterlimit="22.93" stroke="rgb(169,149,123)" stroke-opacity="1" stroke-width="8" d=" M94.06099700927734,-93.33100128173828 C84.73699951171875,-109.72200012207031 72.72200012207031,-122.36900329589844 58.81700134277344,-131.3459930419922"></path></g></g><g style="display: block;" transform="matrix(0.7071067690849304,0.7071067690849304,-0.7071067690849304,0.7071067690849304,-39.57073974609375,-534.5455322265625)" opacity="1"><g opacity="1" transform="matrix(1,0,0,1,768,251)"><g opacity="1" transform="matrix(1,0,0,1,0,0)"><path fill="url(#__lottie_element_27)" fill-opacity="1" d=" M-0.20200000703334808,147.96200561523438 C63.42100143432617,147.96200561523438 114.99700164794922,99.85199737548828 114.99700164794922,0.014999999664723873 C114.99700164794922,-99.8219985961914 63.42100143432617,-147.9320068359375 -0.20200000703334808,-147.9320068359375 C-63.82500076293945,-147.9320068359375 -115.4020004272461,-99.8219985961914 -115.4020004272461,0.014999999664723873 C-115.4020004272461,99.85199737548828 -63.82500076293945,147.96200561523438 -0.20200000703334808,147.96200561523438 C-0.20200000703334808,147.96200561523438 -0.20200000703334808,147.96200561523438 -0.20200000703334808,147.96200561523438z M-0.20200000703334808,108.61499786376953 C-59.74399948120117,108.61499786376953 -76.05500030517578,50.16400146484375 -76.05500030517578,0.014999999664723873 C-76.05500030517578,-50.13399887084961 -59.74399948120117,-108.58499908447266 -0.20200000703334808,-108.58499908447266 C59.34000015258789,-108.58499908447266 75.6510009765625,-50.13399887084961 75.6510009765625,0.014999999664723873 C75.6510009765625,50.16400146484375 59.34000015258789,108.61499786376953 -0.20200000703334808,108.61499786376953z"></path><path fill="url(#__lottie_element_28)" fill-opacity="1" d=" M-0.20200000703334808,147.96200561523438 C63.42100143432617,147.96200561523438 114.99700164794922,99.85199737548828 114.99700164794922,0.014999999664723873 C114.99700164794922,-99.8219985961914 63.42100143432617,-147.9320068359375 -0.20200000703334808,-147.9320068359375 C-63.82500076293945,-147.9320068359375 -115.4020004272461,-99.8219985961914 -115.4020004272461,0.014999999664723873 C-115.4020004272461,99.85199737548828 -63.82500076293945,147.96200561523438 -0.20200000703334808,147.96200561523438 C-0.20200000703334808,147.96200561523438 -0.20200000703334808,147.96200561523438 -0.20200000703334808,147.96200561523438z M-0.20200000703334808,108.61499786376953 C-59.74399948120117,108.61499786376953 -76.05500030517578,50.16400146484375 -76.05500030517578,0.014999999664723873 C-76.05500030517578,-50.13399887084961 -59.74399948120117,-108.58499908447266 -0.20200000703334808,-108.58499908447266 C59.34000015258789,-108.58499908447266 75.6510009765625,-50.13399887084961 75.6510009765625,0.014999999664723873 C75.6510009765625,50.16400146484375 59.34000015258789,108.61499786376953 -0.20200000703334808,108.61499786376953z"></path><path fill="url(#__lottie_element_29)" fill-opacity="1" d=" M-0.20200000703334808,147.96200561523438 C63.42100143432617,147.96200561523438 114.99700164794922,99.85199737548828 114.99700164794922,0.014999999664723873 C114.99700164794922,-99.8219985961914 63.42100143432617,-147.9320068359375 -0.20200000703334808,-147.9320068359375 C-63.82500076293945,-147.9320068359375 -115.4020004272461,-99.8219985961914 -115.4020004272461,0.014999999664723873 C-115.4020004272461,99.85199737548828 -63.82500076293945,147.96200561523438 -0.20200000703334808,147.96200561523438 C-0.20200000703334808,147.96200561523438 -0.20200000703334808,147.96200561523438 -0.20200000703334808,147.96200561523438z M-0.20200000703334808,108.61499786376953 C-59.74399948120117,108.61499786376953 -76.05500030517578,50.16400146484375 -76.05500030517578,0.014999999664723873 C-76.05500030517578,-50.13399887084961 -59.74399948120117,-108.58499908447266 -0.20200000703334808,-108.58499908447266 C59.34000015258789,-108.58499908447266 75.6510009765625,-50.13399887084961 75.6510009765625,0.014999999664723873 C75.6510009765625,50.16400146484375 59.34000015258789,108.61499786376953 -0.20200000703334808,108.61499786376953z"></path></g></g><g opacity="1" transform="matrix(1,0,0,1,731.6699829101562,319.79998779296875)"><g opacity="1" transform="matrix(1,0,0,1,0,0)"><path fill="url(#__lottie_element_30)" fill-opacity="1" d=" M39.13199996948242,57.55799865722656 C66.20500183105469,57.55799865722656 84.20500183105469,44.57500076293945 86.38200378417969,47.93600082397461 C90.33000183105469,57.69900131225586 53.6619987487793,74.09700012207031 21.014999389648438,72.27799987792969 C-61.16899871826172,67.69999694824219 -71.99700164794922,-15.798999786376953 -72.2760009765625,-64.32099914550781 C-72.66999816894531,-132.8000030517578 -51.43600082397461,-162.05799865722656 -32.5989990234375,-180.46200561523438 C-6.920000076293945,-205.5500030517578 55.58000183105469,-221.0500030517578 96.11499786376953,-191.5989990234375 C34.08000183105469,-212.3000030517578 -1.4199999570846558,-192.5500030517578 -15.060999870300293,-180.94400024414062 C-28.40999984741211,-169.58599853515625 -57.46799850463867,-134.8159942626953 -57.46799850463867,-71.61399841308594 C-57.46799850463867,-9.237000465393066 -33.42300033569336,57.55799865722656 39.13199996948242,57.55799865722656z"></path><path fill="url(#__lottie_element_31)" fill-opacity="1" d=" M39.13199996948242,57.55799865722656 C66.20500183105469,57.55799865722656 84.20500183105469,44.57500076293945 86.38200378417969,47.93600082397461 C90.33000183105469,57.69900131225586 53.6619987487793,74.09700012207031 21.014999389648438,72.27799987792969 C-61.16899871826172,67.69999694824219 -71.99700164794922,-15.798999786376953 -72.2760009765625,-64.32099914550781 C-72.66999816894531,-132.8000030517578 -51.43600082397461,-162.05799865722656 -32.5989990234375,-180.46200561523438 C-6.920000076293945,-205.5500030517578 55.58000183105469,-221.0500030517578 96.11499786376953,-191.5989990234375 C34.08000183105469,-212.3000030517578 -1.4199999570846558,-192.5500030517578 -15.060999870300293,-180.94400024414062 C-28.40999984741211,-169.58599853515625 -57.46799850463867,-134.8159942626953 -57.46799850463867,-71.61399841308594 C-57.46799850463867,-9.237000465393066 -33.42300033569336,57.55799865722656 39.13199996948242,57.55799865722656z"></path></g></g><g opacity="1" transform="matrix(1,0,0,1,774.6170043945312,248.531005859375)"><g opacity="1" transform="matrix(1,0,0,1,0,0)"><path fill="rgb(111,60,69)" fill-opacity="1" d=" M-1.715000033378601,122.97799682617188 C31.382999420166016,122.97799682617188 40.257999420166016,115.97000122070312 42.48500061035156,118.55599975585938 C45.689998626708984,122.27799987792969 14.288000106811523,130.42300415039062 -5.614999771118164,130.58299255371094 C-42.70899963378906,130.8820037841797 -86.77300262451172,108.3219985961914 -100.47200012207031,45.1879997253418 C-104.14900207519531,28.2450008392334 -124.08000183105469,-136.56399536132812 9.82699966430664,-133.14199829101562 C72.88300323486328,-131.531005859375 107.94300079345703,-66.42400360107422 108.29499816894531,-11.871999740600586 C108.58899688720703,33.762001037597656 106.13400268554688,56.96900177001953 84.94599914550781,101.3030014038086 C82.88700103759766,99.4229965209961 71.97200012207031,84.43199920654297 71.02300262451172,83.05400085449219 C76.09700012207031,68.35399627685547 90.28299713134766,38.108001708984375 88.0989990234375,-11.86299991607666 C85.72599792480469,-66.15899658203125 49.88399887084961,-118.15599822998047 3.3389999866485596,-118.15599822998047 C-63.86600112915039,-118.15599822998047 -88.71499633789062,-73.53099822998047 -88.71499633789062,-3.444000005722046 C-88.71499633789062,58.93299865722656 -64.36900329589844,122.97799682617188 -1.715000033378601,122.97799682617188z"></path></g></g><g opacity="1" transform="matrix(1,0,0,1,758.6920166015625,223.26499938964844)"><g opacity="1" transform="matrix(1,0,0,1,0,0)"><path fill="url(#__lottie_element_32)" fill-opacity="1" d=" M-75.15399932861328,54.595001220703125 C-77.73899841308594,30.391000747680664 -84.69200134277344,-100.05999755859375 13.996000289916992,-100.05999755859375 C63.30799865722656,-100.05999755859375 108.22200012207031,-57.76499938964844 108.22200012207031,25.242000579833984 C108.22200012207031,35.37900161743164 106.80799865722656,87.23500061035156 91.56300354003906,114.23300170898438 C86.55799865722656,108.98500061035156 87.30799865722656,109.98600006103516 81.95700073242188,104.36399841308594 C93.80799865722656,80.73600006103516 95.33999633789062,49.9010009765625 95.33999633789062,24.6560001373291 C95.33999633789062,-38.76499938964844 70.80799865722656,-84.3270034790039 9.628999710083008,-84.3270034790039 C-46.39099884033203,-84.3270034790039 -64.19200134277344,-26.340999603271484 -66.94000244140625,20.332000732421875 C-66.94000244140625,56.659000396728516 -71.69200134277344,79.98500061035156 -41.74599838256836,121.9749984741211 C-37.5369987487793,127.87699890136719 -69.69200134277344,105.73500061035156 -75.15399932861328,54.595001220703125z"></path></g></g><g opacity="1" transform="matrix(1,0,0,1,865.3720092773438,259.2179870605469)"><g opacity="1" transform="matrix(1,0,0,1,0,0)"><path fill="rgb(56,61,65)" fill-opacity="1" d=" M3.8389999866485596,-76.08899688720703 C26.12700080871582,-24.2189998626709 13.315999984741211,58.084999084472656 -7.360000133514404,91.86499786376953 C-9.418999671936035,87.88500213623047 -11.184000015258789,83.84400177001953 -12.133000373840332,82.46600341796875 C11.128000259399414,44.53099822998047 15.628000259399414,-26.025999069213867 0.14399999380111694,-74.6510009765625 C-7.122000217437744,-97.46800231933594 -13.807999610900879,-117.15899658203125 3.8389999866485596,-76.08899688720703z"></path></g></g><g opacity="1" transform="matrix(1,0,0,1,767.7979736328125,251.01499938964844)"><g opacity="1" transform="matrix(1,0,0,1,0,0)"><path stroke-linecap="round" stroke-linejoin="miter" fill-opacity="0" stroke-miterlimit="22.93" stroke="rgb(54,51,46)" stroke-opacity="1" stroke-width="8" d=" M0,108.5999984741211 C59.54199981689453,108.5999984741211 75.85299682617188,50.14899826049805 75.85299682617188,0 C75.85299682617188,-50.14899826049805 59.54199981689453,-108.5999984741211 0,-108.5999984741211 C-59.54199981689453,-108.5999984741211 -75.85299682617188,-50.14899826049805 -75.85299682617188,0 C-75.85299682617188,50.14899826049805 -59.54199981689453,108.5999984741211 0,108.5999984741211z"></path></g><g opacity="1" transform="matrix(1,0,0,1,0,0)"><path stroke-linecap="round" stroke-linejoin="miter" fill-opacity="0" stroke-miterlimit="22.93" stroke="rgb(108,109,106)" stroke-opacity="1" stroke-width="8" d=" M-44.61800003051758,-92.95800018310547 C-68.27999877929688,-72.19599914550781 -75.85299682617188,-34.17100143432617 -75.85299682617188,0 C-75.85299682617188,39.5099983215332 -65.72899627685547,84.1719970703125 -32.316001892089844,101.34500122070312"></path></g><g opacity="1" transform="matrix(1,0,0,1,0,0)"><path stroke-linecap="round" stroke-linejoin="miter" fill-opacity="0" stroke-miterlimit="22.93" stroke="rgb(60,112,162)" stroke-opacity="1" stroke-width="8" d=" M48.91699981689453,88.81700134277344 C69.20800018310547,67.4010009765625 75.85299682617188,32.00899887084961 75.85299682617188,0 C75.85299682617188,-26.871000289916992 71.16999816894531,-56.125 57.66299819946289,-77.49400329589844"></path></g></g><g opacity="1" transform="matrix(1,0,0,1,767.2979736328125,251.01499938964844)"><g opacity="1" transform="matrix(1,0,0,1,0,0)"><path stroke-linecap="round" stroke-linejoin="miter" fill-opacity="0" stroke-miterlimit="22.93" stroke="rgb(108,109,106)" stroke-opacity="1" stroke-width="8" d=" M0,147.94700622558594 C63.62300109863281,147.94700622558594 115.1989974975586,99.83699798583984 115.1989974975586,0 C115.1989974975586,-99.83699798583984 63.62300109863281,-147.94700622558594 0,-147.94700622558594 C-63.62300109863281,-147.94700622558594 -115.1989974975586,-99.83699798583984 -115.1989974975586,0 C-115.1989974975586,99.83699798583984 -63.62300109863281,147.94700622558594 0,147.94700622558594z"></path></g><g opacity="1" transform="matrix(1,0,0,1,0,0)"><path stroke-linecap="round" stroke-linejoin="miter" fill-opacity="0" stroke-miterlimit="22.93" stroke="rgb(54,51,46)" stroke-opacity="1" stroke-width="8" d=" M-56.382999420166016,132.8679962158203 C-39.71699905395508,142.96099853515625 -20.482999801635742,147.94700622558594 0,147.94700622558594 C0,147.94700622558594 0,147.94700622558594 0,147.94700622558594 C37.694000244140625,147.94700622558594 71.16000366210938,131.05999755859375 92.1760025024414,96.53299713134766"></path></g><g opacity="1" transform="matrix(1,0,0,1,0,0)"><path stroke-linecap="round" stroke-linejoin="miter" fill-opacity="0" stroke-miterlimit="22.93" stroke="rgb(60,112,162)" stroke-opacity="1" stroke-width="8" d=" M28.424999237060547,-144.5030059814453 C19.33300018310547,-146.80299377441406 9.8100004196167,-147.94700622558594 0,-147.94700622558594 C-63.62300109863281,-147.94700622558594 -115.1989974975586,-99.83699798583984 -115.1989974975586,0 C-115.1989974975586,28.518999099731445 -110.98999786376953,52.81700134277344 -103.49500274658203,72.97799682617188"></path></g><g opacity="1" transform="matrix(1,0,0,1,0,0)"><path stroke-linecap="round" stroke-linejoin="miter" fill-opacity="0" stroke-miterlimit="22.93" stroke="rgb(169,149,123)" stroke-opacity="1" stroke-width="8" d=" M81.31700134277344,-111.5780029296875 C67.30799865722656,-127.98100280761719 49.7239990234375,-138.76800537109375 30.058000564575195,-144.0760040283203"></path></g></g><g opacity="0.4" transform="matrix(1,0,0,1,0,0)"><path fill="rgb(56,61,65)" fill-opacity="1" d=" M829.25,311.625 C820.375,333 805.75,345 792.75,351.5 C799.25,352.5 828.875,383.875 772.375,402.875 C837,401.75 860.625,353.125 864.25,347.625 C859.375,336.5 840.25,314.75 829.25,311.625z"></path></g></g><g style="display: block;" transform="matrix(0.7071067690849304,0.7071067690849304,-0.7071067690849304,0.7071067690849304,185.99600219726562,326.0039978027344)" opacity="1"><g opacity="1" transform="matrix(1,0,0,1,0,0)"><path fill="rgb(129,164,204)" fill-opacity="1" d=" M92.44499969482422,-93.98500061035156 C83,-116.25 64,-127.625 59.04800033569336,-130.7100067138672 C55.625,-124.25 39.875,-107.25 31.72100067138672,-100.5770034790039 C47.99800109863281,-92.87100219726562 56.582000732421875,-82.19499969482422 63.63800048828125,-65.30799865722656 C73,-70.25 88,-87.25 92.44499969482422,-93.98500061035156z"></path></g></g><g style="display: block;" transform="matrix(0.7071067690849304,0.7071067690849304,-0.7071067690849304,0.7071067690849304,256,256)" opacity="1"><g opacity="1" transform="matrix(1,0,0,1,0,0)"><path fill="url(#__lottie_element_15)" mask="url(#__lottie_element_17)" fill-opacity="1" d="M0 0 M52.606998443603516,-25.30900001525879 C65.84100341796875,-15.368000030517578 76.39299774169922,-1.8209999799728394 83.83300018310547,16.841999053955078 C84.36799621582031,18.184999465942383 92.875,7.5 93.1520004272461,4.860000133514404 C84.08100128173828,-11.779999732971191 73.31800079345703,-23.945999145507812 57.08599853515625,-33.72700119018555 C55.75,-31.125 53.125,-26.75 52.606998443603516,-25.30900001525879z"></path><path fill="url(#__lottie_element_18)" mask="url(#__lottie_element_20)" fill-opacity="1" d="M0 0 M52.606998443603516,-25.30900001525879 C65.84100341796875,-15.368000030517578 76.39299774169922,-1.8209999799728394 83.83300018310547,16.841999053955078 C84.36799621582031,18.184999465942383 92.875,7.5 93.1520004272461,4.860000133514404 C84.08100128173828,-11.779999732971191 73.31800079345703,-23.945999145507812 57.08599853515625,-33.72700119018555 C55.75,-31.125 53.125,-26.75 52.606998443603516,-25.30900001525879z"></path></g></g><g style="display: block;" transform="matrix(0.7071067690849304,0.7071067690849304,-0.7071067690849304,0.7071067690849304,185.99600219726562,326.0039978027344)" opacity="1"><g opacity="1" transform="matrix(1,0,0,1,0,0)"><path fill="rgb(255,255,255)" fill-opacity="1" d=" M83,-76 C73.81300354003906,-100.25 54.875,-117.18699645996094 44.70000076293945,-123 C40,-117.375 37,-114.375 33.76900100708008,-109.91100311279297 C52.6870002746582,-100.09700012207031 65.58799743652344,-82.93900299072266 73.44599914550781,-61.41299819946289 C76.25,-63.875 81.125,-70.375 83,-76z"></path></g></g><g style="display: block;" transform="matrix(0.7071067690849304,0.7071067690849304,-0.7071067690849304,0.7071067690849304,185.84300231933594,325.8710021972656)" opacity="1"><g opacity="1" transform="matrix(1,0,0,1,0,0)"><path stroke-linecap="round" stroke-linejoin="miter" fill-opacity="0" stroke-miterlimit="22.93" stroke="rgb(54,51,46)" stroke-opacity="1" stroke-width="7.5" d=" M64.83999633789062,-63.573001861572266 C57.91600036621094,-80.14299774169922 47.23500061035156,-93.98300170898438 31.45800018310547,-101.7770004272461"></path></g></g><g style="display: block;" transform="matrix(0.7071067690849304,0.7071067690849304,-0.7071067690849304,0.7071067690849304,185.84300231933594,325.8710021972656)" opacity="1"><g opacity="1" transform="matrix(1,0,0,1,0,0)"><path stroke-linecap="round" stroke-linejoin="miter" fill-opacity="0" stroke-miterlimit="22.93" stroke="rgb(169,149,123)" stroke-opacity="1" stroke-width="8" d=" M93.09600067138672,-94.99700164794922 C83.90399932861328,-110.5979995727539 72.22100067138672,-122.7020034790039 58.77199935913086,-131.37399291992188"></path></g></g></g></svg>