<svg xmlns="http://www.w3.org/2000/svg" xmlns:xlink="http://www.w3.org/1999/xlink" viewBox="0 0 512 512" width="512" height="512" style="width: 100%; height: 100%; transform: translate3d(0,0,0); content-visibility: visible;" preserveAspectRatio="xMidYMid meet"><defs><clipPath id="__lottie_element_2"><rect width="512" height="512" x="0" y="0"></rect></clipPath><linearGradient id="__lottie_element_15" spreadMethod="pad" gradientUnits="userSpaceOnUse" x1="-246" y1="1" x2="243" y2="0"><stop offset="0%" stop-color="rgb(0,0,0)"></stop><stop offset="25%" stop-color="rgb(0,0,0)"></stop><stop offset="50%" stop-color="rgb(0,0,0)"></stop><stop offset="75%" stop-color="rgb(0,0,0)"></stop><stop offset="100%" stop-color="rgb(0,0,0)"></stop></linearGradient><mask id="__lottie_element_17"><path fill="url(#__lottie_element_16)" d=" M122.5,-166 C39.49700164794922,-165.63800048828125 -39.5,-128.00100708007812 -124.25,-126.81300354003906 C-197.0449981689453,-125.79299926757812 -237.75,-149 -246.875,-146 C-246.5,-83.5 -246,145.25 -246,145.25 C-246,145.25 -245.9949951171875,145.2519989013672 -245.9949951171875,145.2519989013672 C-245.9949951171875,145.2519989013672 -245.87100219726562,145.2899932861328 -245.69500732421875,145.343994140625 C-245.468994140625,145.41299438476562 -245.1179962158203,145.5189971923828 -244.64999389648438,145.6580047607422 C-241.35800170898438,146.63900756835938 -232.2449951171875,149.2760009765625 -219.52000427246094,152.32000732421875 C-195.79600524902344,157.9949951171875 -159.51800537109375,165.08399963378906 -125,165.5 C-42,166.5 29.5,127.5 120,126.5 C136.125,126.3219985961914 152.2760009765625,127.7040023803711 167.29400634765625,129.82699584960938 C188.24000549316406,132.78799438476562 206.98300170898438,137.19000244140625 220.375,140.81300354003906 C233.4080047607422,144.33799743652344 241.375,147.125 241.375,147.125 C241.375,147.125 241.375,78.30699920654297 241.375,78.30699920654297 C241.375,78.30699920654297 241.375,-144.625 241.375,-144.625 C241.375,-144.625 179.75,-166.25 122.5,-166z"></path></mask><linearGradient id="__lottie_element_16" spreadMethod="pad" gradientUnits="userSpaceOnUse" x1="-246" y1="1" x2="243" y2="0"><stop stop-color="rgb(255,255,255)" offset="0%" stop-opacity="1"></stop><stop stop-color="rgb(255,255,255)" offset="17%" stop-opacity="0.5"></stop><stop stop-color="rgb(255,255,255)" offset="33%" stop-opacity="0"></stop><stop stop-color="rgb(255,255,255)" offset="50%" stop-opacity="0"></stop><stop stop-color="rgb(255,255,255)" offset="66%" stop-opacity="0"></stop><stop stop-color="rgb(255,255,255)" offset="83%" stop-opacity="0.5"></stop><stop stop-color="rgb(255,255,255)" offset="100%" stop-opacity="1"></stop></linearGradient><linearGradient id="__lottie_element_33" spreadMethod="pad" gradientUnits="userSpaceOnUse" x1="-189" y1="13" x2="-177.78199768066406" y2="13"><stop offset="5%" stop-color="rgb(181,181,181)"></stop><stop offset="19%" stop-color="rgb(213,218,218)"></stop><stop offset="34%" stop-color="rgb(246,254,254)"></stop><stop offset="42%" stop-color="rgb(212,228,237)"></stop><stop offset="46%" stop-color="rgb(179,202,220)"></stop><stop offset="53%" stop-color="rgb(132,144,153)"></stop><stop offset="80%" stop-color="rgb(84,85,86)"></stop><stop offset="87%" stop-color="rgb(99,101,103)"></stop><stop offset="100%" stop-color="rgb(114,118,120)"></stop></linearGradient><radialGradient id="__lottie_element_34" spreadMethod="pad" gradientUnits="userSpaceOnUse" cx="-186.5" cy="-142.75" r="15.279507953650391" fx="-186.5" fy="-142.75"><stop offset="2%" stop-color="rgb(246,254,254)"></stop><stop offset="25%" stop-color="rgb(212,228,237)"></stop><stop offset="31%" stop-color="rgb(179,202,220)"></stop><stop offset="47%" stop-color="rgb(128,139,148)"></stop><stop offset="71%" stop-color="rgb(76,76,76)"></stop><stop offset="86%" stop-color="rgb(95,97,98)"></stop><stop offset="93%" stop-color="rgb(114,118,120)"></stop></radialGradient></defs><g clip-path="url(#__lottie_element_2)"><g style="display: block;" transform="matrix(1.2200000286102295,0,0,1.2200000286102295,296.3348083496094,285.68896484375)" opacity="1"><g opacity="1" transform="matrix(1,0,0,1,0,0)"><path fill="url(#__lottie_element_33)" fill-opacity="1" d=" M-177.822998046875,123.39199829101562 C-177.822998046875,123.39199829101562 -189.04100036621094,123.39199829101562 -189.04100036621094,123.39199829101562 C-189.04100036621094,123.39199829101562 -188.94900512695312,-140.572998046875 -188.94900512695312,-140.572998046875 C-188.94900512695312,-140.572998046875 -177.7310028076172,-140.572998046875 -177.7310028076172,-140.572998046875 C-177.7310028076172,-140.572998046875 -177.822998046875,123.39199829101562 -177.822998046875,123.39199829101562z"></path></g><g opacity="1" transform="matrix(1,0,0,1,0,0)"><path fill="url(#__lottie_element_34)" fill-opacity="1" d=" M-170.8090057373047,-139.07000732421875 C-170.8090057373047,-132.14999389648438 -176.4199981689453,-126.54000091552734 -183.33999633789062,-126.54000091552734 C-190.25999450683594,-126.54000091552734 -195.8699951171875,-132.14999389648438 -195.8699951171875,-139.07000732421875 C-195.8699951171875,-145.99000549316406 -190.25999450683594,-151.60000610351562 -183.33999633789062,-151.60000610351562 C-176.4199981689453,-151.60000610351562 -170.8090057373047,-145.99000549316406 -170.8090057373047,-139.07000732421875z"></path></g></g><g style="display: block;" transform="matrix(0.7612800002098083,0,0,0.7612800002098083,267.6730041503906,250.6122283935547)" opacity="1"><g opacity="1" transform="matrix(1,0,0,1,0,0)"><path fill="rgb(51,51,51)" fill-opacity="1" d=" M122.5,-166 C39.49700164794922,-165.63800048828125 -39.5,-128.00100708007812 -124.25,-126.81300354003906 C-197.0449981689453,-125.79299926757812 -237.75,-149 -246.875,-146 C-246.5,-83.5 -246,145.25 -246,145.25 C-246,145.25 -245.9949951171875,145.2519989013672 -245.9949951171875,145.2519989013672 C-245.9949951171875,145.2519989013672 -245.87100219726562,145.2899932861328 -245.69500732421875,145.343994140625 C-245.468994140625,145.41299438476562 -245.1179962158203,145.5189971923828 -244.64999389648438,145.6580047607422 C-241.35800170898438,146.63900756835938 -232.2449951171875,149.2760009765625 -219.52000427246094,152.32000732421875 C-195.79600524902344,157.9949951171875 -159.51800537109375,165.08399963378906 -125,165.5 C-42,166.5 29.5,127.5 120,126.5 C136.125,126.3219985961914 152.2760009765625,127.7040023803711 167.29400634765625,129.82699584960938 C188.24000549316406,132.78799438476562 206.98300170898438,137.19000244140625 220.375,140.81300354003906 C233.4080047607422,144.33799743652344 241.375,147.125 241.375,147.125 C241.375,147.125 241.375,78.30699920654297 241.375,78.30699920654297 C241.375,78.30699920654297 241.375,-144.625 241.375,-144.625 C241.375,-144.625 179.75,-166.25 122.5,-166z"></path></g></g><g style="display: block;" transform="matrix(0.7612800002098083,0,0,0.7612800002098083,135.73086547851562,87.14089965820312)" opacity="1"><g opacity="1" transform="matrix(1,0,0,1,69.73699951171875,349.6130065917969)"><path fill="rgb(255,255,255)" fill-opacity="1" d=" M162.70199584960938,-231.58099365234375 C151.0800018310547,-218.63099670410156 128.3179931640625,-175.49899291992188 94.04900360107422,-130.21499633789062 C61.82699966430664,-87.63600158691406 25.332000732421875,-51.59000015258789 23.841999053955078,-50.22200012207031 C16.579999923706055,-49.75600051879883 3.1519999504089355,-48.37200164794922 -6.841000080108643,-40.840999603271484 C-31.670000076293945,-22.1299991607666 -7.170000076293945,-8.630999565124512 2.1489999294281006,-11.595999717712402 C1.7050000429153442,8.869000434875488 21.579999923706055,15.369000434875488 35.744998931884766,-0.8149999976158142 C42.986000061035156,-9.088000297546387 44.08000183105469,-22.381000518798828 43.59299850463867,-31.50200080871582 C45.16999816894531,-33.63399887084961 79.36299896240234,-71.55400085449219 112.13899993896484,-114.5270004272461 C131.3300018310547,-140.88099670410156 172.0800018310547,-203.0050048828125 186.677001953125,-217.3990020751953 C198.0800018310547,-219.0050048828125 210.2050018310547,-227.00599670410156 216.10000610351562,-238.0709991455078 C223.0800018310547,-251.13099670410156 216.3300018310547,-268.0050048828125 198.302001953125,-264.3659973144531 C200.0800018310547,-281.3800048828125 182.3300018310547,-288.3810119628906 169.5590057373047,-269.9049987792969 C164.23899841308594,-262.2080078125 159.5800018310547,-245.63099670410156 162.70199584960938,-231.58099365234375z"></path><path stroke-linecap="round" stroke-linejoin="round" fill-opacity="0" stroke="rgb(51,51,51)" stroke-opacity="1" stroke-width="5" d=" M162.70199584960938,-231.58099365234375 C151.0800018310547,-218.63099670410156 128.3179931640625,-175.49899291992188 94.04900360107422,-130.21499633789062 C61.82699966430664,-87.63600158691406 25.332000732421875,-51.59000015258789 23.841999053955078,-50.22200012207031 C16.579999923706055,-49.75600051879883 3.1519999504089355,-48.37200164794922 -6.841000080108643,-40.840999603271484 C-31.670000076293945,-22.1299991607666 -7.170000076293945,-8.630999565124512 2.1489999294281006,-11.595999717712402 C1.7050000429153442,8.869000434875488 21.579999923706055,15.369000434875488 35.744998931884766,-0.8149999976158142 C42.986000061035156,-9.088000297546387 44.08000183105469,-22.381000518798828 43.59299850463867,-31.50200080871582 C45.16999816894531,-33.63399887084961 79.36299896240234,-71.55400085449219 112.13899993896484,-114.5270004272461 C131.3300018310547,-140.88099670410156 172.0800018310547,-203.0050048828125 186.677001953125,-217.3990020751953 C198.0800018310547,-219.0050048828125 210.2050018310547,-227.00599670410156 216.10000610351562,-238.0709991455078 C223.0800018310547,-251.13099670410156 216.3300018310547,-268.0050048828125 198.302001953125,-264.3659973144531 C200.0800018310547,-281.3800048828125 182.3300018310547,-288.3810119628906 169.5590057373047,-269.9049987792969 C164.23899841308594,-262.2080078125 159.5800018310547,-245.63099670410156 162.70199584960938,-231.58099365234375z"></path></g><g opacity="1" transform="matrix(1,0,0,1,278.7330017089844,309.2099914550781)"><path fill="rgb(255,255,255)" fill-opacity="1" d=" M-31.641000747680664,-42.4630012512207 C-33.099998474121094,-43.801998138427734 -70.55400085449219,-71.48100280761719 -104.19400024414062,-100.73400115966797 C-137.00900268554688,-129.27000427246094 -165.3769989013672,-160.25100708007812 -169.0229949951172,-163.15699768066406 C-165.91700744628906,-187.47799682617188 -170.84100341796875,-195.50799560546875 -180.05499267578125,-203 C-187.375,-208.9530029296875 -206.54200744628906,-208.47799682617188 -204.16000366210938,-187.0590057373047 C-229.04200744628906,-186.22799682617188 -227.91600036621094,-168.10299682617188 -222.5030059814453,-158.05599975585938 C-217.03799438476562,-147.91200256347656 -205.35400390625,-141.1649932861328 -192.89199829101562,-142.88800048828125 C-188.85400390625,-137.97799682617188 -157.0709991455078,-106.62899780273438 -124.04399871826172,-77.36599731445312 C-89.89399719238281,-47.108001708984375 -51.97600173950195,-19.18000030517578 -50.435001373291016,-17.09600067138672 C-51.4640007019043,-6.763000011444092 -48.641998291015625,7.171000003814697 -39.92100143432617,12.154000282287598 C-25.562000274658203,20.358999252319336 -9.293999671936035,13.42300033569336 -9.293999671936035,-8.817000389099121 C19.583999633789062,-9.727999687194824 11.333999633789062,-32.72800064086914 1.621999979019165,-38.24800109863281 C-10.331999778747559,-45.042999267578125 -25.367000579833984,-43.30099868774414 -31.641000747680664,-42.4630012512207z"></path><path stroke-linecap="round" stroke-linejoin="round" fill-opacity="0" stroke="rgb(51,51,51)" stroke-opacity="1" stroke-width="5" d=" M-31.641000747680664,-42.4630012512207 C-33.099998474121094,-43.801998138427734 -70.55400085449219,-71.48100280761719 -104.19400024414062,-100.73400115966797 C-137.00900268554688,-129.27000427246094 -165.3769989013672,-160.25100708007812 -169.0229949951172,-163.15699768066406 C-165.91700744628906,-187.47799682617188 -170.84100341796875,-195.50799560546875 -180.05499267578125,-203 C-187.375,-208.9530029296875 -206.54200744628906,-208.47799682617188 -204.16000366210938,-187.0590057373047 C-229.04200744628906,-186.22799682617188 -227.91600036621094,-168.10299682617188 -222.5030059814453,-158.05599975585938 C-217.03799438476562,-147.91200256347656 -205.35400390625,-141.1649932861328 -192.89199829101562,-142.88800048828125 C-188.85400390625,-137.97799682617188 -157.0709991455078,-106.62899780273438 -124.04399871826172,-77.36599731445312 C-89.89399719238281,-47.108001708984375 -51.97600173950195,-19.18000030517578 -50.435001373291016,-17.09600067138672 C-51.4640007019043,-6.763000011444092 -48.641998291015625,7.171000003814697 -39.92100143432617,12.154000282287598 C-25.562000274658203,20.358999252319336 -9.293999671936035,13.42300033569336 -9.293999671936035,-8.817000389099121 C19.583999633789062,-9.727999687194824 11.333999633789062,-32.72800064086914 1.621999979019165,-38.24800109863281 C-10.331999778747559,-45.042999267578125 -25.367000579833984,-43.30099868774414 -31.641000747680664,-42.4630012512207z"></path></g></g><g style="display: block;" transform="matrix(0.7612800002098083,0,0,0.7612800002098083,127.73687744140625,85.9989013671875)" opacity="1"><g opacity="1" transform="matrix(1,0,0,1,177.2519989013672,207.0189971923828)"><path fill="rgb(255,255,255)" fill-opacity="1" d=" M70.60199737548828,-57.25 C53.66600036621094,-76.12899780273438 23.209999084472656,-77.16000366210938 4.428999900817871,-72.90299987792969 C-12.303000450134277,-69.11000061035156 -36.97100067138672,-57.375999450683594 -58.15999984741211,-33.20899963378906 C-83.22200012207031,-4.624000072479248 -68.20999908447266,32.308998107910156 -61.79499816894531,46.680999755859375 C-57.15599822998047,57.07400131225586 -66.572998046875,69.7509994506836 -49.382999420166016,72.5999984741211 C-34.66400146484375,75.03900146484375 -29.448999404907227,75.22799682617188 -29.322999954223633,89.12699890136719 C-29.246999740600586,97.51599884033203 -8.343000411987305,93.65899658203125 2.2720000743865967,91.12999725341797 C11.729000091552734,88.87699890136719 34.11600112915039,83.61699676513672 36.33599853515625,74.72699737548828 C38.165000915527344,67.4020004272461 37.237998962402344,57.202999114990234 54.80400085449219,49.058998107910156 C72.35700225830078,40.91999816894531 67.34200286865234,31.04400062561035 70.35099792480469,16.26799964904785 C73.5459976196289,0.5789999961853027 95.4260025024414,-29.57699966430664 70.60199737548828,-57.25z"></path><path stroke-linecap="round" stroke-linejoin="round" fill-opacity="0" stroke="rgb(51,51,51)" stroke-opacity="1" stroke-width="5" d=" M70.60199737548828,-57.25 C53.66600036621094,-76.12899780273438 23.209999084472656,-77.16000366210938 4.428999900817871,-72.90299987792969 C-12.303000450134277,-69.11000061035156 -36.97100067138672,-57.375999450683594 -58.15999984741211,-33.20899963378906 C-83.22200012207031,-4.624000072479248 -68.20999908447266,32.308998107910156 -61.79499816894531,46.680999755859375 C-57.15599822998047,57.07400131225586 -66.572998046875,69.7509994506836 -49.382999420166016,72.5999984741211 C-34.66400146484375,75.03900146484375 -29.448999404907227,75.22799682617188 -29.322999954223633,89.12699890136719 C-29.246999740600586,97.51599884033203 -8.343000411987305,93.65899658203125 2.2720000743865967,91.12999725341797 C11.729000091552734,88.87699890136719 34.11600112915039,83.61699676513672 36.33599853515625,74.72699737548828 C38.165000915527344,67.4020004272461 37.237998962402344,57.202999114990234 54.80400085449219,49.058998107910156 C72.35700225830078,40.91999816894531 67.34200286865234,31.04400062561035 70.35099792480469,16.26799964904785 C73.5459976196289,0.5789999961853027 95.4260025024414,-29.57699966430664 70.60199737548828,-57.25z"></path></g><g opacity="1" transform="matrix(1,0,0,1,177.2519989013672,207.0189971923828)"><path fill="rgb(51,51,51)" fill-opacity="1" d=" M11.895000457763672,58.41899871826172 C10.579000473022461,60.861000061035156 7.1539998054504395,59.92399978637695 5.5,59.875 C3.1019999980926514,62.03499984741211 0.14000000059604645,64.33699798583984 -2.5869998931884766,62.45800018310547 C-5.113999843597412,60.71699905395508 -1.8329999446868896,52.946998596191406 3.996000051498413,51.93899917602539 C9.928000450134277,50.91299819946289 12.961000442504883,56.44200134277344 11.895000457763672,58.41899871826172z"></path><path stroke-linecap="round" stroke-linejoin="round" fill-opacity="0" stroke="rgb(51,51,51)" stroke-opacity="1" stroke-width="5" d=" M11.895000457763672,58.41899871826172 C10.579000473022461,60.861000061035156 7.1539998054504395,59.92399978637695 5.5,59.875 C3.1019999980926514,62.03499984741211 0.14000000059604645,64.33699798583984 -2.5869998931884766,62.45800018310547 C-5.113999843597412,60.71699905395508 -1.8329999446868896,52.946998596191406 3.996000051498413,51.93899917602539 C9.928000450134277,50.91299819946289 12.961000442504883,56.44200134277344 11.895000457763672,58.41899871826172z"></path></g><g opacity="1" transform="matrix(1,0,0,1,177.2519989013672,207.0189971923828)"><path fill="rgb(51,51,51)" fill-opacity="1" d=" M-9.083000183105469,40.97100067138672 C-11.633000373840332,46.15700149536133 -17.610000610351562,50.400001525878906 -23.930999755859375,52.06399917602539 C-36.0620002746582,55.257999420166016 -44.369998931884766,52.26499938964844 -45.65299987792969,37.95500183105469 C-47.43899917602539,18.03499984741211 -25.10300064086914,10.958000183105469 -17.06800079345703,11.96399974822998 C-3.809999942779541,13.62399959564209 -4.440000057220459,31.52899932861328 -9.083000183105469,40.97100067138672z"></path><path stroke-linecap="round" stroke-linejoin="round" fill-opacity="0" stroke="rgb(51,51,51)" stroke-opacity="1" stroke-width="5" d=" M-9.083000183105469,40.97100067138672 C-11.633000373840332,46.15700149536133 -17.610000610351562,50.400001525878906 -23.930999755859375,52.06399917602539 C-36.0620002746582,55.257999420166016 -44.369998931884766,52.26499938964844 -45.65299987792969,37.95500183105469 C-47.43899917602539,18.03499984741211 -25.10300064086914,10.958000183105469 -17.06800079345703,11.96399974822998 C-3.809999942779541,13.62399959564209 -4.440000057220459,31.52899932861328 -9.083000183105469,40.97100067138672z"></path></g><g opacity="1" transform="matrix(1,0,0,1,177.2519989013672,207.0189971923828)"><path fill="rgb(51,51,51)" fill-opacity="1" d=" M53.066001892089844,14.83899974822998 C52.632999420166016,25.948999404907227 49.15800094604492,34.95399856567383 37.159000396728516,37.03900146484375 C30.628000259399414,38.17399978637695 20.766000747680664,39.35200119018555 17.87700080871582,33.29100036621094 C13.932999610900879,25.017000198364258 14.12399959564209,9.21399974822998 23.753999710083008,2.7149999141693115 C30.388999938964844,-1.7630000114440918 53.99100112915039,-8.885000228881836 53.066001892089844,14.83899974822998z"></path><path stroke-linecap="round" stroke-linejoin="round" fill-opacity="0" stroke="rgb(51,51,51)" stroke-opacity="1" stroke-width="5" d=" M53.066001892089844,14.83899974822998 C52.632999420166016,25.948999404907227 49.15800094604492,34.95399856567383 37.159000396728516,37.03900146484375 C30.628000259399414,38.17399978637695 20.766000747680664,39.35200119018555 17.87700080871582,33.29100036621094 C13.932999610900879,25.017000198364258 14.12399959564209,9.21399974822998 23.753999710083008,2.7149999141693115 C30.388999938964844,-1.7630000114440918 53.99100112915039,-8.885000228881836 53.066001892089844,14.83899974822998z"></path></g></g><g style="display: block;" transform="matrix(0.7612800002098083,0,0,0.7612800002098083,135.73086547851562,87.14089965820312)" opacity="1"><g opacity="1" transform="matrix(1,0,0,1,0,0)"><path fill="rgb(255,255,255)" fill-opacity="1" d=" M198.7550048828125,286.5450134277344 C184.81700134277344,293.1700134277344 164.44200134277344,299.35699462890625 142.69200134277344,300.35699462890625 C140.44200134277344,309.60699462890625 142.56199645996094,311.5400085449219 145.3800048828125,311.48199462890625 C148.4429931640625,311.41900634765625 149.7550048828125,311.4200134277344 149.3800048828125,300.4200134277344 C149.8800048828125,311.2950134277344 148.44200134277344,313.9200134277344 154.4029998779297,313.73199462890625 C159.71400451660156,313.56500244140625 159.8800048828125,310.6700134277344 159.69200134277344,299.0450134277344 C160.19200134277344,313.1080017089844 160.68499755859375,313.8160095214844 165.81700134277344,312.98199462890625 C170.81700134277344,312.16900634765625 170.8800048828125,310.3580017089844 170.7550048828125,296.6700134277344 C170.9429931640625,309.3580017089844 170.31700134277344,312.0450134277344 176.31700134277344,310.4200134277344 C182.44200134277344,308.6700134277344 181.12899780273438,302.4830017089844 180.80099487304688,294.1700134277344 C181.30099487304688,305.8580017089844 181.2550048828125,307.3580017089844 187.5050048828125,305.2950134277344 C192.68699645996094,303.5849914550781 192.0050048828125,299.6080017089844 191.1300048828125,290.5450134277344 C192.0679931640625,299.7330017089844 193.16099548339844,299.8919982910156 196.1300048828125,298.9200134277344 C199.5679931640625,297.7950134277344 200.2550048828125,294.8580017089844 198.7550048828125,286.5450134277344z"></path><path stroke-linecap="round" stroke-linejoin="round" fill-opacity="0" stroke="rgb(51,51,51)" stroke-opacity="1" stroke-width="5" d=" M198.7550048828125,286.5450134277344 C184.81700134277344,293.1700134277344 164.44200134277344,299.35699462890625 142.69200134277344,300.35699462890625 C140.44200134277344,309.60699462890625 142.56199645996094,311.5400085449219 145.3800048828125,311.48199462890625 C148.4429931640625,311.41900634765625 149.7550048828125,311.4200134277344 149.3800048828125,300.4200134277344 C149.8800048828125,311.2950134277344 148.44200134277344,313.9200134277344 154.4029998779297,313.73199462890625 C159.71400451660156,313.56500244140625 159.8800048828125,310.6700134277344 159.69200134277344,299.0450134277344 C160.19200134277344,313.1080017089844 160.68499755859375,313.8160095214844 165.81700134277344,312.98199462890625 C170.81700134277344,312.16900634765625 170.8800048828125,310.3580017089844 170.7550048828125,296.6700134277344 C170.9429931640625,309.3580017089844 170.31700134277344,312.0450134277344 176.31700134277344,310.4200134277344 C182.44200134277344,308.6700134277344 181.12899780273438,302.4830017089844 180.80099487304688,294.1700134277344 C181.30099487304688,305.8580017089844 181.2550048828125,307.3580017089844 187.5050048828125,305.2950134277344 C192.68699645996094,303.5849914550781 192.0050048828125,299.6080017089844 191.1300048828125,290.5450134277344 C192.0679931640625,299.7330017089844 193.16099548339844,299.8919982910156 196.1300048828125,298.9200134277344 C199.5679931640625,297.7950134277344 200.2550048828125,294.8580017089844 198.7550048828125,286.5450134277344z"></path></g></g><g style="display: block;" transform="matrix(0.7612800002098083,0,0,0.7612800002098083,267.6730041503906,250.61199951171875)" opacity="0.75"><g opacity="1" transform="matrix(1,0,0,1,0,0)"><path fill="url(#__lottie_element_15)" mask="url(#__lottie_element_17)" fill-opacity="1" d="M0 0 M122.5,-166 C39.49700164794922,-165.63800048828125 -39.5,-128.00100708007812 -124.25,-126.81300354003906 C-197.0449981689453,-125.79299926757812 -237.75,-149 -246.875,-146 C-246.5,-83.5 -246,145.25 -246,145.25 C-246,145.25 -245.9949951171875,145.2519989013672 -245.9949951171875,145.2519989013672 C-245.9949951171875,145.2519989013672 -245.87100219726562,145.2899932861328 -245.69500732421875,145.343994140625 C-245.468994140625,145.41299438476562 -245.1179962158203,145.5189971923828 -244.64999389648438,145.6580047607422 C-241.35800170898438,146.63900756835938 -232.2449951171875,149.2760009765625 -219.52000427246094,152.32000732421875 C-195.79600524902344,157.9949951171875 -159.51800537109375,165.08399963378906 -125,165.5 C-42,166.5 29.5,127.5 120,126.5 C136.125,126.3219985961914 152.2760009765625,127.7040023803711 167.29400634765625,129.82699584960938 C188.24000549316406,132.78799438476562 206.98300170898438,137.19000244140625 220.375,140.81300354003906 C233.4080047607422,144.33799743652344 241.375,147.125 241.375,147.125 C241.375,147.125 241.375,78.30699920654297 241.375,78.30699920654297 C241.375,78.30699920654297 241.375,-144.625 241.375,-144.625 C241.375,-144.625 179.75,-166.25 122.5,-166z"></path></g></g><g style="display: block;" transform="matrix(0.7612800002098083,0,0,0.7612800002098083,267.6730041503906,250.61199951171875)" opacity="0.1"><g opacity="1" transform="matrix(1,0,0,1,0,0)"><path fill="rgb(255,255,255)" fill-opacity="1" d=" M-246.875,-146 C-246.83700561523438,-139.70399475097656 -246.875,-138 -246.79200744628906,-132.81100463867188 C-237.5,-136.25 -197.25,-114 -124.49600219726562,-114.31099700927734 C-38.992000579833984,-114.6760025024414 39.233001708984375,-153.25 121.70800018310547,-153.39700317382812 C179.75,-153.5 241,-132.25 240.91200256347656,-131.552001953125 C241,-140.5 241.375,-144.625 241.375,-144.625 C241.375,-144.625 179.75,-166.25 122.5,-166 C39.49700164794922,-165.63800048828125 -39.5,-128.00100708007812 -124.25,-126.81300354003906 C-197.0449981689453,-125.79299926757812 -237.75,-149 -246.875,-146z"></path></g></g><g style="display: block;" transform="matrix(0.7612800002098083,0,0,0.7612800002098083,267.6730041503906,250.61199951171875)" opacity="0.4"><g opacity="1" transform="matrix(1,0,0,1,0,0)"><path fill="rgb(0,0,0)" fill-opacity="1" d=" M122.5,112.25 C34,112.25 -36,149.5 -123.5,152 C-140.61700439453125,152.48899841308594 -155.82000732421875,151.3489990234375 -170.41099548339844,149.1280059814453 C-195.23399353027344,145.35000610351562 -218.28900146484375,138.4459991455078 -246,131.125 C-246.25,134.5 -246,141.375 -246,145.125 C-218.5749969482422,153.30599975585938 -195.61700439453125,159.55499267578125 -170.83099365234375,163.0050048828125 C-155.8520050048828,165.08999633789062 -140.20399475097656,166.15199279785156 -122.5,166 C-35,165.25 33.5,126.625 121.75,126.5 C126.26799774169922,126.49400329589844 131.11399841308594,126.59500122070312 136.27699279785156,126.83899688720703 C163.25900268554688,128.11300659179688 198.88099670410156,133.2550048828125 241.375,147 C241.375,147 241.25,134.75 241.5,131.125 C199.093994140625,118.93299865722656 163.16200256347656,113.84500122070312 136.1439971923828,112.58000183105469 C131.30499267578125,112.35399627685547 126.75299835205078,112.25 122.5,112.25z"></path></g></g><g style="display: block;" transform="matrix(0.7612800002098083,0,0,0.7612800002098083,267.6730041503906,250.61199951171875)" opacity="1"><g opacity="1" transform="matrix(1,0,0,1,0,0)"><path stroke-linecap="round" stroke-linejoin="round" fill-opacity="0" stroke="rgb(0,0,0)" stroke-opacity="1" stroke-width="8" d=" M122.5,-166 C39.49700164794922,-165.63800048828125 -39.5,-128.00100708007812 -124.25,-126.81300354003906 C-197.0449981689453,-125.79299926757812 -237.75,-149 -246.875,-146 C-246.5,-83.5 -246,145.25 -246,145.25 C-246,145.25 -245.9949951171875,145.2519989013672 -245.9949951171875,145.2519989013672 C-245.9949951171875,145.2519989013672 -245.87100219726562,145.2899932861328 -245.69500732421875,145.343994140625 C-245.468994140625,145.41299438476562 -245.1179962158203,145.5189971923828 -244.64999389648438,145.6580047607422 C-241.35800170898438,146.63900756835938 -232.2449951171875,149.2760009765625 -219.52000427246094,152.32000732421875 C-195.79600524902344,157.9949951171875 -159.51800537109375,165.08399963378906 -125,165.5 C-42,166.5 29.5,127.5 120,126.5 C136.125,126.3219985961914 152.2760009765625,127.7040023803711 167.29400634765625,129.82699584960938 C188.24000549316406,132.78799438476562 206.98300170898438,137.19000244140625 220.375,140.81300354003906 C233.4080047607422,144.33799743652344 241.375,147.125 241.375,147.125 C241.375,147.125 241.375,78.30699920654297 241.375,78.30699920654297 C241.375,78.30699920654297 241.375,-144.625 241.375,-144.625 C241.375,-144.625 179.75,-166.25 122.5,-166z"></path></g><g opacity="0" transform="matrix(1,0,0,1,0,0)"><path stroke-linecap="round" stroke-linejoin="miter" fill-opacity="0" stroke-miterlimit="4" stroke="rgb(0,0,0)" stroke-opacity="1" stroke-width="8" d=" M164,96.375 C164,96.375 174.375,104.875 174.375,104.875"></path></g></g></g></svg>